<svg width="268" height="180" viewBox="0 0 268 180" fill="none" xmlns="http://www.w3.org/2000/svg">
<mask id="path-1-inside-1_1_11" fill="white">
<path fill-rule="evenodd" clip-rule="evenodd" d="M-2.1119e-06 48.3146C-1.62907e-06 37.2689 8.9543 28.3146 20 28.3146L38.6534 28.3146L56.906 2.48744e-06L75.1586 28.3146L248 28.3146C259.046 28.3146 268 37.2689 268 48.3146L268 104.157L268 160C268 171.046 259.046 180 248 180L20 180C8.9543 180 -7.47664e-06 171.046 -6.99382e-06 160L-2.1119e-06 48.3146Z"/>
</mask>
<path fill-rule="evenodd" clip-rule="evenodd" d="M-2.1119e-06 48.3146C-1.62907e-06 37.2689 8.9543 28.3146 20 28.3146L38.6534 28.3146L56.906 2.48744e-06L75.1586 28.3146L248 28.3146C259.046 28.3146 268 37.2689 268 48.3146L268 104.157L268 160C268 171.046 259.046 180 248 180L20 180C8.9543 180 -7.47664e-06 171.046 -6.99382e-06 160L-2.1119e-06 48.3146Z" fill="white"/>
<path d="M38.6534 28.3146L39.4939 28.8564L39.1986 29.3146L38.6534 29.3146L38.6534 28.3146ZM56.906 2.48744e-06L56.0655 -0.541813L56.906 -1.84565L57.7465 -0.541813L56.906 2.48744e-06ZM75.1586 28.3146L75.1586 29.3146L74.6135 29.3146L74.3181 28.8564L75.1586 28.3146ZM248 28.3146L248 29.3146L248 28.3146ZM268 48.3146L269 48.3146L268 48.3146ZM268 104.157L267 104.157L268 104.157ZM20 29.3146C9.50659 29.3146 0.999998 37.8211 0.999998 48.3146L-1 48.3146C-1 36.7166 8.40202 27.3146 20 27.3146L20 29.3146ZM38.6534 29.3146L20 29.3146L20 27.3146L38.6534 27.3146L38.6534 29.3146ZM57.7465 0.541818L39.4939 28.8564L37.8129 27.7727L56.0655 -0.541813L57.7465 0.541818ZM74.3181 28.8564L56.0655 0.541818L57.7465 -0.541813L75.9991 27.7727L74.3181 28.8564ZM248 29.3146L75.1586 29.3146L75.1586 27.3146L248 27.3146L248 29.3146ZM267 48.3146C267 37.8212 258.493 29.3146 248 29.3146L248 27.3146C259.598 27.3146 269 36.7166 269 48.3146L267 48.3146ZM267 104.157L267 48.3146L269 48.3146L269 104.157L267 104.157ZM267 160L267 104.157L269 104.157L269 160L267 160ZM248 179C258.493 179 267 170.493 267 160L269 160C269 171.598 259.598 181 248 181L248 179ZM20 179L248 179L248 181L20 181L20 179ZM0.999993 160C0.999993 170.493 9.50658 179 20 179L20 181C8.40201 181 -1.00001 171.598 -1.00001 160L0.999993 160ZM0.999998 48.3146L0.999993 160L-1.00001 160L-1 48.3146L0.999998 48.3146Z" fill="black" mask="url(#path-1-inside-1_1_11)"/>
</svg>
