<svg width="1015" height="718" viewBox="0 0 1015 718" fill="none" xmlns="http://www.w3.org/2000/svg">
<mask id="path-1-inside-1_1_60" fill="white">
<path fill-rule="evenodd" clip-rule="evenodd" d="M56.3788 718C45.3331 718 36.3788 709.046 36.3788 698L36.3788 679.347L0 661.094L36.3788 642.841L36.3788 20C36.3788 8.95428 45.3332 0 56.3789 0H133.822L995 0C1006.05 0 1015 8.95428 1015 20L1015 698C1015 709.046 1006.05 718 995 718L56.3788 718Z"/>
</mask>
<path fill-rule="evenodd" clip-rule="evenodd" d="M56.3788 718C45.3331 718 36.3788 709.046 36.3788 698L36.3788 679.347L0 661.094L36.3788 642.841L36.3788 20C36.3788 8.95428 45.3332 0 56.3789 0H133.822L995 0C1006.05 0 1015 8.95428 1015 20L1015 698C1015 709.046 1006.05 718 995 718L56.3788 718Z" fill="white"/>
<path d="M36.3788 679.347L36.8273 678.453L37.3788 678.729V679.347H36.3788ZM-3.36648e-05 661.094L-0.448488 661.988L-2.22991 661.094L-0.448488 660.2L-3.36648e-05 661.094ZM36.3788 642.841L37.3788 642.841L37.3788 643.458L36.8273 643.735L36.3788 642.841ZM36.3788 20L37.3788 20L36.3788 20ZM37.3788 698C37.3788 708.493 45.8854 717 56.3788 717V719C44.7808 719 35.3788 709.598 35.3788 698H37.3788ZM37.3788 679.347L37.3788 698H35.3788L35.3788 679.347H37.3788ZM0.448421 660.2L36.8273 678.453L35.9304 680.24L-0.448488 661.988L0.448421 660.2ZM36.8273 643.735L0.448421 661.988L-0.448488 660.2L35.9304 641.948L36.8273 643.735ZM37.3788 20L37.3788 642.841L35.3788 642.841L35.3788 20L37.3788 20ZM56.3788 1C45.8854 1 37.3788 9.50657 37.3788 20H35.3788C35.3788 8.402 44.7809 -1 56.3788 -1V1ZM133.822 1H56.3788V-1H133.822V1ZM995 1L133.822 1V-1L995 -1V1ZM1014 20C1014 9.50657 1005.49 1 995 1V-1C1006.6 -1 1016 8.402 1016 20H1014ZM1014 698L1014 20H1016L1016 698H1014ZM995 717C1005.49 717 1014 708.493 1014 698H1016C1016 709.598 1006.6 719 995 719V717ZM56.3788 717L995 717V719L56.3788 719V717Z" fill="black" mask="url(#path-1-inside-1_1_60)"/>
</svg>
